<?xml version="1.0" standalone="no"?>
<!DOCTYPE svg PUBLIC "-//W3C//DTD SVG 20010904//EN"
 "http://www.w3.org/TR/2001/REC-SVG-20010904/DTD/svg10.dtd">
<svg version="1.0" xmlns="http://www.w3.org/2000/svg"
 width="80.000000pt" height="80.000000pt" viewBox="0 0 80.000000 80.000000"
 preserveAspectRatio="xMidYMid meet">

<g transform="translate(0.000000,80.000000) scale(0.100000,-0.100000)"
fill="#000000" stroke="none">
<path d="M0 400 l0 -400 400 0 400 0 0 400 0 400 -400 0 -400 0 0 -400z m242
313 c21 -19 25 -82 6 -101 -7 -7 -33 -12 -58 -12 -25 0 -51 5 -58 12 -17 17
-15 78 5 100 20 23 80 24 105 1z m420 0 c21 -19 25 -82 6 -101 -7 -7 -33 -12
-58 -12 -25 0 -51 5 -58 12 -17 17 -15 78 5 100 20 23 80 24 105 1z m108 -203
l0 -80 -370 0 -370 0 0 80 0 80 370 0 370 0 0 -80z m-620 -255 l0 -165 -30 0
-30 0 0 165 0 165 30 0 30 0 0 -165z m560 0 l0 -165 -30 0 -30 0 0 165 0 165
30 0 30 0 0 -165z m-70 -65 c0 -19 -7 -20 -240 -20 -233 0 -240 1 -240 20 0
19 7 20 240 20 233 0 240 -1 240 -20z"/>
</g>
</svg>
