<?xml version="1.0" encoding="UTF-8" standalone="no"?>
<!-- Created with Inkscape (http://www.inkscape.org/) -->

<svg
   xmlns:dc="http://purl.org/dc/elements/1.1/"
   xmlns:cc="http://creativecommons.org/ns#"
   xmlns:rdf="http://www.w3.org/1999/02/22-rdf-syntax-ns#"
   xmlns:svg="http://www.w3.org/2000/svg"
   xmlns="http://www.w3.org/2000/svg"
   xmlns:sodipodi="http://sodipodi.sourceforge.net/DTD/sodipodi-0.dtd"
   xmlns:inkscape="http://www.inkscape.org/namespaces/inkscape"
   width="117"
   height="30"
   viewBox="0 0 117 30"
   id="svg4618"
   version="1.1"
   inkscape:version="0.91 r"
   sodipodi:docname="logo.svg">
  <defs
     id="defs4620" />
  <sodipodi:namedview
     id="base"
     pagecolor="#ffffff"
     bordercolor="#666666"
     borderopacity="1.0"
     inkscape:pageopacity="0"
     inkscape:pageshadow="2"
     inkscape:zoom="5.6"
     inkscape:cx="81.038329"
     inkscape:cy="23.601229"
     inkscape:document-units="px"
     inkscape:current-layer="g5476"
     showgrid="false"
     units="px"
     inkscape:window-width="1317"
     inkscape:window-height="744"
     inkscape:window-x="49"
     inkscape:window-y="24"
     inkscape:window-maximized="1" />
  <metadata
     id="metadata4623">
    <rdf:RDF>
      <cc:Work
         rdf:about="">
        <dc:format>image/svg+xml</dc:format>
        <dc:type
           rdf:resource="http://purl.org/dc/dcmitype/StillImage" />
        <dc:title></dc:title>
      </cc:Work>
    </rdf:RDF>
  </metadata>
  <g
     inkscape:label="Layer 1"
     inkscape:groupmode="layer"
     id="layer1"
     transform="translate(0,-1022.3622)">
    <g
       transform="matrix(0.23832671,0,0,0.23832671,38.999547,1174.88)"
       id="g5887">
      <g
         id="g5476"
         transform="translate(60.281888,0.42055842)">
        <rect
           style="fill:none;stroke:none"
           id="rect5889"
           width="56.906025"
           height="55.895866"
           x="-126.45862"
           y="-605.03107" />
        <circle
           style="fill:none;fill-opacity:1;stroke:#d8335b;stroke-width:2.09796047;stroke-linecap:round;stroke-miterlimit:4;stroke-dasharray:none;stroke-dashoffset:0;stroke-opacity:1"
           id="circle5891"
           cx="-125.91136"
           cy="-605.33636"
           r="28.114632" />
        <path
           style="fill:none;fill-opacity:1;stroke:#d8335b;stroke-width:2.09796047;stroke-linecap:butt;stroke-linejoin:miter;stroke-miterlimit:4;stroke-dasharray:none;stroke-opacity:1"
           d="m -125.91108,-577.20937 0,28.41054 11.30793,0"
           id="path5893"
           inkscape:connector-curvature="0"
           sodipodi:nodetypes="ccc" />
        <path
           style="fill:none;fill-opacity:1;stroke:#d8335b;stroke-width:2.09796047;stroke-linecap:butt;stroke-linejoin:miter;stroke-miterlimit:4;stroke-dasharray:none;stroke-opacity:1"
           d="m -69.342532,-576.83057 0,-28.66308 -11.82385,0"
           id="path5895"
           inkscape:connector-curvature="0"
           sodipodi:nodetypes="ccc" />
        <path
           sodipodi:type="star"
           style="fill:#d8335b;fill-opacity:1;stroke:none"
           id="path5897"
           sodipodi:sides="3"
           sodipodi:cx="-108.99104"
           sodipodi:cy="-548.79883"
           sodipodi:r1="11.616754"
           sodipodi:r2="5.8083773"
           sodipodi:arg1="0"
           sodipodi:arg2="1.0471976"
           inkscape:flatsided="false"
           inkscape:rounded="0"
           inkscape:randomized="0"
           d="m -97.37429,-548.79883 -8.71256,5.0302 -8.71257,5.03021 0,-10.06041 0,-10.0604 8.71257,5.0302 z"
           inkscape:transform-center-x="-2.9041886" />
        <path
           transform="scale(-1,-1)"
           inkscape:transform-center-x="2.9041907"
           d="m 97.816224,605.55676 -8.712565,5.03021 -8.712565,5.0302 -10e-7,-10.06041 10e-7,-10.0604 8.712565,5.0302 z"
           inkscape:randomized="0"
           inkscape:rounded="0"
           inkscape:flatsided="false"
           sodipodi:arg2="1.0471976"
           sodipodi:arg1="0"
           sodipodi:r2="5.8083773"
           sodipodi:r1="11.616754"
           sodipodi:cy="605.55676"
           sodipodi:cx="86.199471"
           sodipodi:sides="3"
           id="path5899"
           style="fill:#d8335b;fill-opacity:1;stroke:none"
           sodipodi:type="star" />
        <g
           id="g5901">
          <circle
             r="28.114632"
             cy="-548.69141"
             cx="-69.266357"
             style="fill:#d8335b;fill-opacity:1;stroke:#e77fa1;stroke-width:0.41572678;stroke-linecap:round;stroke-miterlimit:4;stroke-dasharray:none;stroke-dashoffset:0;stroke-opacity:1"
             id="circle5903" />
          <circle
             r="17.756865"
             cy="-548.69141"
             cx="-69.266365"
             id="circle5905"
             style="fill:#ffffff;fill-opacity:1;stroke:#ffffff;stroke-width:0.65642011;stroke-opacity:1" />
        </g>
        <circle
           transform="scale(1,-1)"
           id="circle5907"
           style="fill:#d8335b;fill-opacity:1;stroke:#ffffff;stroke-width:1;stroke-linecap:round;stroke-miterlimit:4;stroke-dasharray:none;stroke-dashoffset:0;stroke-opacity:1"
           cx="-125.91136"
           cy="605.33636"
           r="17.833502" />
        <g
           id="text5909"
           style="font-style:normal;font-variant:normal;font-weight:800;font-stretch:normal;font-size:85.60980988px;line-height:80.00000119%;font-family:Montserrat;-inkscape-font-specification:'Montserrat Ultra-Bold';text-align:start;letter-spacing:0px;word-spacing:0px;writing-mode:lr-tb;text-anchor:start;fill:#d8335b;fill-opacity:1;stroke:none"
           transform="translate(0,12.546256)">
          <path
             id="path5397"
             d="m 27.479709,-570.14581 -25.1646021,0 -3.9711582,11.37005 -16.1772447,0 23.1163211,-62.40988 19.1869639,0 23.116321,62.40988 -16.177244,0 -3.929357,-11.37005 z m -21.1516422,-11.57906 17.0968812,0 -8.52754,-24.83019 -8.5693412,24.83019 z"
             inkscape:connector-curvature="0" />
          <path
             id="path5399"
             d="m 41.692274,-621.18564 57.519091,0 0,12.16428 -20.691824,0 0,50.2456 -16.093641,0 0,-50.2456 -20.733626,0 0,-12.16428 z"
             inkscape:connector-curvature="0" />
          <path
             id="path5401"
             d="m 107.48809,-621.18564 16.09364,0 0,62.40988 -16.09364,0 0,-62.40988 z"
             inkscape:connector-curvature="0" />
          <path
             id="path5403"
             d="m 155.51821,-609.02136 0,38.08132 5.76863,0 q 9.86519,0 15.0486,-4.8908 5.22521,-4.89079 5.22521,-14.21256 0,-9.27997 -5.18341,-14.12897 -5.1834,-4.84899 -15.0904,-4.84899 l -5.76863,0 z m -16.09364,-12.16428 16.97148,0 q 14.21256,0 21.15164,2.04828 6.98088,2.00648 11.95527,6.85547 4.38918,4.22197 6.52106,9.73979 2.13189,5.51782 2.13189,12.4987 0,7.06448 -2.13189,12.6241 -2.13188,5.51782 -6.52106,9.73979 -5.0162,4.84899 -12.03887,6.89727 -7.02268,2.00648 -21.06804,2.00648 l -16.97148,0 0,-62.40988 z"
             inkscape:connector-curvature="0" />
        </g>
      </g>
      <g
         style="font-style:normal;font-variant:normal;font-weight:normal;font-stretch:normal;font-size:14px;line-height:80.00000119%;font-family:Montserrat;-inkscape-font-specification:Montserrat;text-align:start;letter-spacing:0px;word-spacing:0px;writing-mode:lr-tb;text-anchor:start;fill:#d8335b;fill-opacity:1;stroke:none"
         id="text5913"
         transform="translate(0,116.88637)">
        <path
           d="m -13.466156,-546.60681 -1.873047,5.0791 3.75293,0 -1.879883,-5.0791 z m -0.779297,-1.36035 1.56543,0 3.8896482,10.20605 -1.4355472,0 -0.929687,-2.61816 -4.600586,0 -0.929688,2.61816 -1.456054,0 3.896484,-10.20605 z"
           id="path5406"
           inkscape:connector-curvature="0" />
        <path
           d="m -7.4642029,-547.96716 1.3876953,0 0,6.20019 q 0,1.64063 0.5947266,2.36524 0.5947266,0.71777 1.9277344,0.71777 1.3261718,0 1.9208984,-0.71777 0.5947266,-0.72461 0.5947266,-2.36524 l 0,-6.20019 1.38769528,0 0,6.37109 q 0,1.99609 -0.99121094,3.01465 -0.98437504,1.01855 -2.91210934,1.01855 -1.9345703,0 -2.9257813,-1.01855 -0.984375,-1.01856 -0.984375,-3.01465 l 0,-6.37109 z"
           id="path5408"
           inkscape:connector-curvature="0" />
        <path
           d="m 1.5318909,-547.96716 8.6337891,0 0,1.16211 -3.6230469,0 0,9.04394 -1.3876954,0 0,-9.04394 -3.6230468,0 0,-1.16211 z"
           id="path5410"
           inkscape:connector-curvature="0" />
        <path
           d="m 11.505524,-547.96716 1.380859,0 0,4.18359 5.017578,0 0,-4.18359 1.38086,0 0,10.20605 -1.38086,0 0,-4.86035 -5.017578,0 0,4.86035 -1.380859,0 0,-10.20605 z"
           id="path5412"
           inkscape:connector-curvature="0" />
        <path
           d="m 26.175446,-547.03064 q -1.503907,0 -2.392579,1.12109 -0.881836,1.1211 -0.881836,3.05567 0,1.92773 0.881836,3.04883 0.888672,1.12109 2.392579,1.12109 1.503906,0 2.378906,-1.12109 0.881836,-1.1211 0.881836,-3.04883 0,-1.93457 -0.881836,-3.05567 -0.875,-1.12109 -2.378906,-1.12109 z m 0,-1.12109 q 2.146484,0 3.43164,1.44238 1.285156,1.43555 1.285156,3.85547 0,2.41308 -1.285156,3.85547 -1.285156,1.43554 -3.43164,1.43554 -2.153321,0 -3.445313,-1.43554 -1.285156,-1.43555 -1.285156,-3.85547 0,-2.41992 1.285156,-3.85547 1.291992,-1.44238 3.445313,-1.44238 z"
           id="path5414"
           inkscape:connector-curvature="0" />
        <path
           d="m 37.892242,-542.54626 q 0.444336,0.15039 0.861329,0.64257 0.423828,0.49219 0.847656,1.35352 l 1.401367,2.78906 -1.483398,0 -1.305665,-2.61816 q -0.505859,-1.02539 -0.984375,-1.36035 -0.471679,-0.33496 -1.291992,-0.33496 l -1.503906,0 0,4.31347 -1.380859,0 0,-10.20605 3.117187,0 q 1.75,0 2.611328,0.73144 0.861328,0.73145 0.861328,2.20801 0,0.96387 -0.451171,1.59961 -0.444336,0.63574 -1.298829,0.88184 z m -3.458984,-4.28614 0,3.62305 1.736328,0 q 0.998047,0 1.503906,-0.45801 0.512696,-0.46484 0.512696,-1.36035 0,-0.89551 -0.512696,-1.34668 -0.505859,-0.45801 -1.503906,-0.45801 l -1.736328,0 z"
           id="path5416"
           inkscape:connector-curvature="0" />
        <path
           d="m 42.786774,-547.96716 1.380859,0 0,10.20605 -1.380859,0 0,-10.20605 z"
           id="path5418"
           inkscape:connector-curvature="0" />
        <path
           d="m 46.91568,-547.96716 1.859375,0 4.525391,8.53808 0,-8.53808 1.339843,0 0,10.20605 -1.859375,0 -4.52539,-8.53808 0,8.53808 -1.339844,0 0,-10.20605 z"
           id="path5420"
           inkscape:connector-curvature="0" />
        <path
           d="m 64.347321,-539.21716 0,-2.74121 -2.25586,0 0,-1.13477 3.623047,0 0,4.38184 q -0.799805,0.56738 -1.763672,0.86132 -0.963867,0.28711 -2.057617,0.28711 -2.392578,0 -3.746094,-1.39453 -1.346679,-1.40136 -1.346679,-3.89648 0,-2.50195 1.346679,-3.89649 1.353516,-1.40136 3.746094,-1.40136 0.998047,0 1.893555,0.24609 0.902343,0.24609 1.661132,0.72461 l 0,1.46973 q -0.765625,-0.64942 -1.626953,-0.97754 -0.861328,-0.32813 -1.811523,-0.32813 -1.873047,0 -2.816406,1.0459 -0.936524,1.0459 -0.936524,3.11719 0,2.06445 0.936524,3.11035 0.943359,1.0459 2.816406,1.0459 0.731445,0 1.305664,-0.12305 0.574219,-0.12988 1.032227,-0.39648 z"
           id="path5422"
           inkscape:connector-curvature="0" />
        <path
           d="m 71.285797,-547.96716 8.633789,0 0,1.16211 -3.623047,0 0,9.04394 -1.387695,0 0,-9.04394 -3.623047,0 0,-1.16211 z"
           id="path5424"
           inkscape:connector-curvature="0" />
        <path
           d="m 85.402008,-547.03064 q -1.503906,0 -2.392578,1.12109 -0.881836,1.1211 -0.881836,3.05567 0,1.92773 0.881836,3.04883 0.888672,1.12109 2.392578,1.12109 1.503906,0 2.378906,-1.12109 0.881836,-1.1211 0.881836,-3.04883 0,-1.93457 -0.881836,-3.05567 -0.875,-1.12109 -2.378906,-1.12109 z m 0,-1.12109 q 2.146484,0 3.431641,1.44238 1.285156,1.43555 1.285156,3.85547 0,2.41308 -1.285156,3.85547 -1.285157,1.43554 -3.431641,1.43554 -2.15332,0 -3.445312,-1.43554 -1.285157,-1.43555 -1.285157,-3.85547 0,-2.41992 1.285157,-3.85547 1.291992,-1.44238 3.445312,-1.44238 z"
           id="path5426"
           inkscape:connector-curvature="0" />
        <path
           d="m 96.421539,-547.03064 q -1.503906,0 -2.392578,1.12109 -0.881836,1.1211 -0.881836,3.05567 0,1.92773 0.881836,3.04883 0.888672,1.12109 2.392578,1.12109 1.503907,0 2.378907,-1.12109 0.881835,-1.1211 0.881835,-3.04883 0,-1.93457 -0.881835,-3.05567 -0.875,-1.12109 -2.378907,-1.12109 z m 0,-1.12109 q 2.146485,0 3.431641,1.44238 1.28516,1.43555 1.28516,3.85547 0,2.41308 -1.28516,3.85547 -1.285156,1.43554 -3.431641,1.43554 -2.15332,0 -3.445312,-1.43554 -1.285156,-1.43555 -1.285156,-3.85547 0,-2.41992 1.285156,-3.85547 1.291992,-1.44238 3.445312,-1.44238 z"
           id="path5428"
           inkscape:connector-curvature="0" />
        <path
           d="m 103.29849,-547.96716 1.38086,0 0,9.04394 4.96973,0 0,1.16211 -6.35059,0 0,-10.20605 z"
           id="path5430"
           inkscape:connector-curvature="0" />
        <path
           d="m 115.54849,-547.96716 5.86524,0 0,1.16211 -4.48438,0 0,3.00781 4.04688,0 0,1.16211 -4.04688,0 0,4.87402 -1.38086,0 0,-10.20605 z"
           id="path5432"
           inkscape:connector-curvature="0" />
        <path
           d="m 127.75748,-547.03064 q -1.50391,0 -2.39258,1.12109 -0.88184,1.1211 -0.88184,3.05567 0,1.92773 0.88184,3.04883 0.88867,1.12109 2.39258,1.12109 1.5039,0 2.3789,-1.12109 0.88184,-1.1211 0.88184,-3.04883 0,-1.93457 -0.88184,-3.05567 -0.875,-1.12109 -2.3789,-1.12109 z m 0,-1.12109 q 2.14648,0 3.43164,1.44238 1.28515,1.43555 1.28515,3.85547 0,2.41308 -1.28515,3.85547 -1.28516,1.43554 -3.43164,1.43554 -2.15332,0 -3.44532,-1.43554 -1.28515,-1.43555 -1.28515,-3.85547 0,-2.41992 1.28515,-3.85547 1.292,-1.44238 3.44532,-1.44238 z"
           id="path5434"
           inkscape:connector-curvature="0" />
        <path
           d="m 139.47427,-542.54626 q 0.44434,0.15039 0.86133,0.64257 0.42383,0.49219 0.84766,1.35352 l 1.40137,2.78906 -1.4834,0 -1.30567,-2.61816 q -0.50586,-1.02539 -0.98437,-1.36035 -0.47168,-0.33496 -1.29199,-0.33496 l -1.50391,0 0,4.31347 -1.38086,0 0,-10.20605 3.11719,0 q 1.75,0 2.61133,0.73144 0.86132,0.73145 0.86132,2.20801 0,0.96387 -0.45117,1.59961 -0.44433,0.63574 -1.29883,0.88184 z m -3.45898,-4.28614 0,3.62305 1.73633,0 q 0.99804,0 1.5039,-0.45801 0.5127,-0.46484 0.5127,-1.36035 0,-0.89551 -0.5127,-1.34668 -0.50586,-0.45801 -1.5039,-0.45801 l -1.73633,0 z"
           id="path5436"
           inkscape:connector-curvature="0" />
        <path
           d="m 148.82584,-547.96716 1.38086,0 0,10.20605 -1.38086,0 0,-10.20605 z"
           id="path5438"
           inkscape:connector-curvature="0" />
        <path
           d="m 152.95474,-547.96716 1.85938,0 4.52539,8.53808 0,-8.53808 1.33984,0 0,10.20605 -1.85937,0 -4.52539,-8.53808 0,8.53808 -1.33985,0 0,-10.20605 z"
           id="path5440"
           inkscape:connector-curvature="0" />
        <path
           d="m 169.54556,-547.6322 0,1.34668 q -0.78613,-0.37598 -1.4834,-0.56055 -0.69726,-0.18457 -1.34668,-0.18457 -1.12793,0 -1.74316,0.4375 -0.6084,0.4375 -0.6084,1.24414 0,0.67676 0.40332,1.02539 0.41016,0.3418 1.54492,0.55371 l 0.83399,0.1709 q 1.54492,0.29395 2.27637,1.03906 0.73828,0.73828 0.73828,1.98243 0,1.48339 -0.99805,2.24902 -0.99121,0.76562 -2.91211,0.76562 -0.72461,0 -1.54492,-0.16406 -0.81348,-0.16406 -1.68848,-0.48535 l 0,-1.42188 q 0.84082,0.47168 1.64746,0.71094 0.80664,0.23926 1.58594,0.23926 1.18262,0 1.8252,-0.46484 0.64257,-0.46485 0.64257,-1.32618 0,-0.75195 -0.46484,-1.17578 -0.45801,-0.42382 -1.51074,-0.63574 l -0.84082,-0.16406 q -1.54492,-0.30762 -2.23535,-0.96387 -0.69043,-0.65625 -0.69043,-1.82519 0,-1.35352 0.95019,-2.13282 0.95703,-0.77929 2.63184,-0.77929 0.71777,0 1.46289,0.12988 0.74512,0.12988 1.52441,0.38965 z"
           id="path5442"
           inkscape:connector-curvature="0" />
        <path
           d="m 170.89908,-547.96716 8.63379,0 0,1.16211 -3.62305,0 0,9.04394 -1.38769,0 0,-9.04394 -3.62305,0 0,-1.16211 z"
           id="path5444"
           inkscape:connector-curvature="0" />
        <path
           d="m 185.71255,-542.54626 q 0.44434,0.15039 0.86133,0.64257 0.42383,0.49219 0.84766,1.35352 l 1.40137,2.78906 -1.4834,0 -1.30567,-2.61816 q -0.50586,-1.02539 -0.98437,-1.36035 -0.47168,-0.33496 -1.29199,-0.33496 l -1.50391,0 0,4.31347 -1.38086,0 0,-10.20605 3.11719,0 q 1.75,0 2.61133,0.73144 0.86132,0.73145 0.86132,2.20801 0,0.96387 -0.45117,1.59961 -0.44433,0.63574 -1.29883,0.88184 z m -3.45898,-4.28614 0,3.62305 1.73633,0 q 0.99805,0 1.5039,-0.45801 0.5127,-0.46484 0.5127,-1.36035 0,-0.89551 -0.5127,-1.34668 -0.50585,-0.45801 -1.5039,-0.45801 l -1.73633,0 z"
           id="path5446"
           inkscape:connector-curvature="0" />
        <path
           d="m 190.44986,-547.96716 1.38769,0 0,6.20019 q 0,1.64063 0.59473,2.36524 0.59473,0.71777 1.92774,0.71777 1.32617,0 1.92089,-0.71777 0.59473,-0.72461 0.59473,-2.36524 l 0,-6.20019 1.3877,0 0,6.37109 q 0,1.99609 -0.99121,3.01465 -0.98438,1.01855 -2.91211,1.01855 -1.93457,0 -2.92579,-1.01855 -0.98437,-1.01856 -0.98437,-3.01465 l 0,-6.37109 z"
           id="path5448"
           inkscape:connector-curvature="0" />
        <path
           d="m 208.50357,-547.18103 0,1.45605 q -0.69727,-0.64941 -1.49023,-0.9707 -0.78614,-0.32129 -1.67481,-0.32129 -1.75,0 -2.67969,1.07324 -0.92968,1.06641 -0.92968,3.08985 0,2.0166 0.92968,3.08984 0.92969,1.06641 2.67969,1.06641 0.88867,0 1.67481,-0.32129 0.79296,-0.32129 1.49023,-0.9707 l 0,1.44238 q -0.72461,0.49219 -1.53809,0.73828 -0.80664,0.24609 -1.70898,0.24609 -2.31738,0 -3.65039,-1.41504 -1.33301,-1.42187 -1.33301,-3.87597 0,-2.46094 1.33301,-3.87598 1.33301,-1.42187 3.65039,-1.42187 0.91602,0 1.72266,0.24609 0.81347,0.23926 1.52441,0.72461 z"
           id="path5450"
           inkscape:connector-curvature="0" />
        <path
           d="m 209.23502,-547.96716 8.63378,0 0,1.16211 -3.62304,0 0,9.04394 -1.3877,0 0,-9.04394 -3.62304,0 0,-1.16211 z"
           id="path5452"
           inkscape:connector-curvature="0" />
        <path
           d="m 219.20865,-547.96716 1.38086,0 0,10.20605 -1.38086,0 0,-10.20605 z"
           id="path5454"
           inkscape:connector-curvature="0" />
        <path
           d="m 227.48013,-547.03064 q -1.5039,0 -2.39258,1.12109 -0.88183,1.1211 -0.88183,3.05567 0,1.92773 0.88183,3.04883 0.88868,1.12109 2.39258,1.12109 1.50391,0 2.37891,-1.12109 0.88184,-1.1211 0.88184,-3.04883 0,-1.93457 -0.88184,-3.05567 -0.875,-1.12109 -2.37891,-1.12109 z m 0,-1.12109 q 2.14649,0 3.43164,1.44238 1.28516,1.43555 1.28516,3.85547 0,2.41308 -1.28516,3.85547 -1.28515,1.43554 -3.43164,1.43554 -2.15332,0 -3.44531,-1.43554 -1.28516,-1.43555 -1.28516,-3.85547 0,-2.41992 1.28516,-3.85547 1.29199,-1.44238 3.44531,-1.44238 z"
           id="path5456"
           inkscape:connector-curvature="0" />
        <path
           d="m 234.35709,-547.96716 1.85937,0 4.52539,8.53808 0,-8.53808 1.33985,0 0,10.20605 -1.85938,0 -4.52539,-8.53808 0,8.53808 -1.33984,0 0,-10.20605 z"
           id="path5458"
           inkscape:connector-curvature="0" />
        <path
           d="m 248.24088,-546.60681 -1.87305,5.0791 3.75293,0 -1.87988,-5.0791 z m -0.7793,-1.36035 1.56543,0 3.88965,10.20605 -1.43555,0 -0.92969,-2.61816 -4.60058,0 -0.92969,2.61816 -1.45606,0 3.89649,-10.20605 z"
           id="path5460"
           inkscape:connector-curvature="0" />
        <path
           d="m 254.40005,-547.96716 1.38086,0 0,9.04394 4.96973,0 0,1.16211 -6.35059,0 0,-10.20605 z"
           id="path5462"
           inkscape:connector-curvature="0" />
        <path
           d="m 268.03091,-546.8324 0,7.93653 1.66797,0 q 2.11231,0 3.08985,-0.95704 0.98437,-0.95703 0.98437,-3.02148 0,-2.05078 -0.98437,-3.00098 -0.97754,-0.95703 -3.08985,-0.95703 l -1.66797,0 z m -1.38086,-1.13476 2.83692,0 q 2.9668,0 4.35449,1.2373 1.3877,1.23047 1.3877,3.85547 0,2.63867 -1.39453,3.87598 -1.39454,1.2373 -4.34766,1.2373 l -2.83692,0 0,-10.20605 z"
           id="path5464"
           inkscape:connector-curvature="0" />
        <path
           d="m 277.42349,-547.96716 6.45313,0 0,1.16211 -5.07227,0 0,3.02148 4.86035,0 0,1.16211 -4.86035,0 0,3.69824 5.19531,0 0,1.16211 -6.57617,0 0,-10.20605 z"
           id="path5466"
           inkscape:connector-curvature="0" />
        <path
           d="m 292.40103,-547.6322 0,1.34668 q -0.78613,-0.37598 -1.4834,-0.56055 -0.69726,-0.18457 -1.34668,-0.18457 -1.12793,0 -1.74316,0.4375 -0.6084,0.4375 -0.6084,1.24414 0,0.67676 0.40332,1.02539 0.41016,0.3418 1.54492,0.55371 l 0.83399,0.1709 q 1.54492,0.29395 2.27636,1.03906 0.73829,0.73828 0.73829,1.98243 0,1.48339 -0.99805,2.24902 -0.99121,0.76562 -2.91211,0.76562 -0.72461,0 -1.54492,-0.16406 -0.81348,-0.16406 -1.68848,-0.48535 l 0,-1.42188 q 0.84082,0.47168 1.64746,0.71094 0.80664,0.23926 1.58594,0.23926 1.18262,0 1.82519,-0.46484 0.64258,-0.46485 0.64258,-1.32618 0,-0.75195 -0.46484,-1.17578 -0.45801,-0.42382 -1.51074,-0.63574 l -0.84082,-0.16406 q -1.54493,-0.30762 -2.23535,-0.96387 -0.69043,-0.65625 -0.69043,-1.82519 0,-1.35352 0.95019,-2.13282 0.95703,-0.77929 2.63184,-0.77929 0.71777,0 1.46289,0.12988 0.74511,0.12988 1.52441,0.38965 z"
           id="path5468"
           inkscape:connector-curvature="0" />
        <path
           d="m 295.16959,-547.96716 1.38086,0 0,10.20605 -1.38086,0 0,-10.20605 z"
           id="path5470"
           inkscape:connector-curvature="0" />
        <path
           d="m 306.25748,-539.21716 0,-2.74121 -2.25586,0 0,-1.13477 3.62304,0 0,4.38184 q -0.7998,0.56738 -1.76367,0.86132 -0.96386,0.28711 -2.05761,0.28711 -2.39258,0 -3.7461,-1.39453 -1.34668,-1.40136 -1.34668,-3.89648 0,-2.50195 1.34668,-3.89649 1.35352,-1.40136 3.7461,-1.40136 0.99804,0 1.89355,0.24609 0.90234,0.24609 1.66113,0.72461 l 0,1.46973 q -0.76562,-0.64942 -1.62695,-0.97754 -0.86133,-0.32813 -1.81152,-0.32813 -1.87305,0 -2.81641,1.0459 -0.93652,1.0459 -0.93652,3.11719 0,2.06445 0.93652,3.11035 0.94336,1.0459 2.81641,1.0459 0.73144,0 1.30566,-0.12305 0.57422,-0.12988 1.03223,-0.39648 z"
           id="path5472"
           inkscape:connector-curvature="0" />
        <path
           d="m 310.15396,-547.96716 1.85938,0 4.52539,8.53808 0,-8.53808 1.33984,0 0,10.20605 -1.85937,0 -4.5254,-8.53808 0,8.53808 -1.33984,0 0,-10.20605 z"
           id="path5474"
           inkscape:connector-curvature="0" />
      </g>
    </g>
  </g>
</svg>
